Coordinates
version=1
nRows=9
nColumns=63
inDegrees=yes

Units are S.I. units (second, meters, Newtons, ...)
If the header above contains a line with 'inDegrees', this indicates whether rotational values are in degrees (yes) or radians (no).

endheader
time	pelvis_tilt	pelvis_list	pelvis_rotation	pelvis_tx	pelvis_ty	pelvis_tz	hip_flexion_r	hip_adduction_r	hip_rotation_r	knee_angle_r	knee_angle_r_beta	ankle_angle_r	subtalar_angle_r	mtp_angle_r	hip_flexion_l	hip_adduction_l	hip_rotation_l	knee_angle_l	knee_angle_l_beta	ankle_angle_l	subtalar_angle_l	mtp_angle_l	L5_S1_Flex_Ext	L5_S1_Lat_Bending	L5_S1_axial_rotation	L4_L5_Flex_Ext	L4_L5_Lat_Bending	L4_L5_axial_rotation	L3_L4_Flex_Ext	L3_L4_Lat_Bending	L3_L4_axial_rotation	L2_L3_Flex_Ext	L2_L3_Lat_Bending	L2_L3_axial_rotation	L1_L2_Flex_Ext	L1_L2_Lat_Bending	L1_L2_axial_rotation	L1_T12_Flex_Ext	L1_T12_Lat_Bending	L1_T12_axial_rotation	Abs_r3	Abs_r2	Abs_r1	Abs_t1	Abs_t2	neck_flexion	neck_bending	neck_rotation	arm_flex_r	arm_add_r	arm_rot_r	elbow_flex_r	pro_sup_r	wrist_flex_r	wrist_dev_r	arm_flex_l	arm_add_l	arm_rot_l	elbow_flex_l	pro_sup_l	wrist_flex_l	wrist_dev_l
      1.71428571	     -0.27161047	    -18.60329500	     87.77782786	      0.23794433	      1.11837214	      0.32674216	     11.25049514	     -1.43492127	      7.00710328	      9.92346985	      0.17319722	     32.02133910	     13.25665154	      0.00000000	      9.94928481	     -2.15269547	    -17.79810237	      8.47977608	      0.14800001	     30.68393507	     15.68679401	      0.00000000	      0.12360843	     -0.01494208	      1.48517604	      0.22955321	     -0.01987296	      1.57799954	      0.20307629	     -0.03633017	      1.57799954	      0.14127207	     -0.03633017	      1.29952904	      0.11478279	     -0.03046989	      1.20670553	      0.07062986	     -0.02314528	      1.11388203	      0.88292265	     -0.16902778	      8.26010359	      0.00000000	      0.00000000	     26.26178394	     -4.21973093	     -2.26696585	    -10.08685174	    -10.23923485	     -9.08156400	    130.17495566	     66.63698580	     -4.10163362	      3.30567211	     11.61880331	    -10.09148455	      6.04793769	    117.42389385	     84.03570311	    -13.70555932	      5.40849458
      1.73469388	     -0.21023639	    -18.75102927	     88.03084923	      0.23683261	      1.11820902	      0.32722769	     11.42124572	     -1.46719770	      6.89709866	     10.03469968	      0.17513855	     31.88619982	     13.06283512	      0.00000000	     10.21318335	     -2.17513290	    -17.01641033	      8.47405922	      0.14790023	     30.72715317	     15.57355112	      0.00000000	      0.12820543	     -0.00768906	      1.23362408	      0.23809031	     -0.01022644	      1.31072559	      0.21062871	     -0.01869517	      1.31072559	      0.14652599	     -0.01869517	      1.07942107	      0.11905157	     -0.01567952	      1.00231957	      0.07325659	     -0.01191035	      0.92521806	      0.91575860	     -0.08698013	      6.86104706	      0.00000000	      0.00000000	     26.34465415	     -5.08275689	     -1.76686790	    -13.35355925	    -11.21886580	    -10.95890284	    124.87387544	     66.14145361	     -3.71580733	      2.33435993	     13.68320343	     -8.96761897	      4.77077146	    125.51131158	     84.51622201	    -13.12397807	      3.27747658
      1.75510204	      0.06870534	    -18.68836117	     88.86051212	      0.23489874	      1.11853780	      0.32707490	     11.17539073	     -1.38838038	      6.38089007	      9.93676899	      0.17342934	     31.61761601	     12.63442093	      0.00000000	     10.33503805	     -2.30465986	    -15.40128669	      8.60145335	      0.15012368	     30.82198265	     15.12965937	      0.00000000	      0.11355926	      0.02743753	      0.72772068	      0.21089090	      0.03649191	      0.77320322	      0.18656650	      0.06671161	      0.77320322	      0.12978687	      0.06671161	      0.63675560	      0.10545113	      0.05595061	      0.59127305	      0.06488776	      0.04250073	      0.54579051	      0.81114242	      0.31037882	      4.04736412	      0.00000000	      0.00000000	     25.86163821	     -5.29832808	      0.02667004	    -13.89338534	    -12.47134099	    -10.89266899	    119.80600494	     67.67749509	     -2.82826713	      0.68089467	     14.70417811	     -8.29478064	      2.69755425	    132.20123827	     85.86771592	    -11.54846525	      2.64070191
      1.77551020	      0.08589879	    -18.79196474	     89.08433464	      0.23435983	      1.11846892	      0.32671141	     11.17203180	     -1.39594037	      6.67140510	      9.85135170	      0.17193852	     31.26083754	     11.96012450	      0.00000000	     10.46836854	     -2.31151446	    -14.69820338	      8.61763825	      0.15040616	     30.74265942	     15.04690169	      0.00000000	      0.11711537	      0.02144646	      0.37100533	      0.21749495	      0.02852379	      0.39419317	      0.19240884	      0.05214493	      0.39419317	      0.13385115	      0.05214493	      0.32462967	      0.10875333	      0.04373362	      0.30144183	      0.06691972	      0.03322057	      0.27825400	      0.83654336	      0.24260666	      2.06342035	      0.00000000	      0.00000000	     25.41290005	     -5.15192909	      0.77755309	    -13.16951739	    -13.28196670	    -10.04974699	    118.09719915	     72.47668683	     -3.52584401	      0.04654518	     12.86395838	     -8.69498287	      1.10404759	    136.30314526	     86.25465137	    -10.08118602	      2.10907531
      1.79591837	     -0.04692261	    -18.67459875	     88.95988419	      0.23527077	      1.11818227	      0.32672404	     11.14185716	     -1.45524225	      6.69546120	     10.03061077	      0.17506718	     31.15805888	     11.90194279	      0.00000000	     10.38880463	     -2.31652045	    -14.61190085	      8.81024906	      0.15376785	     30.70748538	     15.10477639	      0.00000000	      0.05820223	     -0.01830541	      0.37721019	      0.10808737	     -0.02434619	      0.40078583	      0.09562045	     -0.04450776	      0.40078583	      0.06651933	     -0.04450776	      0.33005892	      0.05404659	     -0.03732838	      0.30648328	      0.03325676	     -0.02835507	      0.28290764	      0.41573273	     -0.20707440	      2.09792993	      0.00000000	      0.00000000	     25.23301118	     -4.60482020	     -0.05451789	    -12.43723160	    -13.19531634	    -10.02263748	    120.47595676	     72.89622977	     -3.36608452	     -0.21214387	      8.75242925	    -10.05627958	      1.47764182	    136.69603306	     86.24244569	     -9.75724918	      1.86644888
      1.81632653	     -0.80558140	    -19.12936320	     88.35191208	      0.23810062	      1.11712490	      0.32671496	     11.71305516	     -1.89593634	      7.99895015	     10.05589259	      0.17550843	     31.37628044	     10.94817430	      0.00000000	     10.69911265	     -1.79830647	    -15.19807631	      8.67741283	      0.15144942	     30.40968834	     15.25772814	      0.00000000	      0.11358992	     -0.12710257	      0.43664294	      0.21094783	     -0.16904642	      0.46393312	      0.18661687	     -0.30903719	      0.46393312	      0.12982191	     -0.30903719	      0.38206257	      0.10547960	     -0.25918756	      0.35477239	      0.06490528	     -0.19688188	      0.32748221	      0.81136140	     -1.43780972	      2.42847704	      0.00000000	      0.00000000	     24.44811045	     -2.82692909	     -1.04785715	    -10.51949389	    -12.20625445	     -9.56419217	    125.62081651	     82.19637079	     -4.58572848	      1.91800690	      2.74425347	    -12.08908605	      0.65326583	    133.25331995	     85.08566785	     -6.44856825	      0.83728667
      1.83673469	     -0.96289873	    -19.23616894	     87.87578721	      0.23984791	      1.11680910	      0.32678567	     11.97446364	     -1.86844939	      8.32240821	     10.13222467	      0.17684068	     31.61297132	     11.16433953	      0.00000000	     10.68587157	     -1.78850653	    -15.62992772	      8.63805408	      0.15076248	     30.18688034	     15.02964765	      0.00000000	      0.10014664	     -0.10342803	      0.76795911	      0.18598232	     -0.13755927	      0.81595656	      0.16453091	     -0.25147490	      0.81595656	      0.11445759	     -0.25147490	      0.67196422	      0.09299617	     -0.21091043	      0.62396678	      0.05722379	     -0.16021001	      0.57596933	      0.71533743	     -1.16999851	      4.27115819	      0.00000000	      0.00000000	     23.64113662	     -1.98095994	     -0.57600488	     -7.50952285	    -11.82881881	     -9.09601606	    132.40472536	     83.80376698	     -3.72469565	      4.23628806	     -0.90894430	    -13.50612961	      2.25762054	    126.57803730	     83.39110826	     -6.55884411	      4.53891212
      1.85714286	     -0.91469423	    -19.30857163	     87.47217962	      0.24116445	      1.11680671	      0.32636233	     12.17556594	     -1.70685347	      8.03811439	     10.18650575	      0.17778806	     31.94149546	     12.14897658	      0.00000000	     10.54393711	     -1.91043239	    -16.16205018	      8.42721926	      0.14708272	     29.93179106	     14.78614424	      0.00000000	      0.09092977	     -0.02137406	      1.19754552	      0.16886568	     -0.02842749	      1.27239212	      0.14938853	     -0.05196888	      1.27239212	      0.10392364	     -0.05196888	      1.04785233	      0.08443739	     -0.04358597	      0.97300574	      0.05195727	     -0.03310841	      0.89815914	      0.64950229	     -0.24178759	      6.66038894	      0.00000000	      0.00000000	     22.61326675	     -2.00484424	      0.65469026	     -2.86356318	    -12.10179629	     -7.86740881	    139.13436347	     84.51452354	     -1.98550711	      7.97587781	     -1.28830649	    -14.08734055	      5.39570493	    118.34044870	     81.90886288	     -8.13188744	      9.68946719
      1.87755102	     -0.87191967	    -19.22058692	     87.09053298	      0.24286172	      1.11718963	      0.32571385	     12.17246749	     -1.55602614	      7.51516470	     10.18358176	      0.17773703	     32.29791554	     13.40758882	      0.00000000	     10.19919653	     -1.99649107	    -16.66121664	      8.08926770	      0.14118436	     29.71417488	     14.35291096	      0.00000000	      0.07118179	      0.03673867	      1.73862957	      0.13219170	      0.04886242	      1.84729392	      0.11694456	      0.08932639	      1.84729392	      0.08135367	      0.08932639	      1.52130087	      0.06609941	      0.07491749	      1.41263652	      0.04067327	      0.05690819	      1.30397218	      0.50844441	      0.41559513	      9.66973607	      0.00000000	      0.00000000	     21.56354231	     -2.29073836	      0.59898872	      1.75364086	    -12.70540483	     -6.83672314	    144.00409721	     84.91265807	     -0.54760393	     10.68115306	      1.32534058	    -13.86412018	      9.81878075	    110.59162112	     80.44025067	     -9.45075135	     12.94782944
